<svg width="320" height="100" viewBox="0 0 320 100" xmlns="http://www.w3.org/2000/svg" role="img">
  <title>Konfig horizontal logo light mode</title>
  <defs>
    <radialGradient id="bgL" cx="28%" cy="38%" r="75%" gradientUnits="objectBoundingBox">
      <stop offset="0%" stop-color="#F3F1EB"/>
      <stop offset="100%" stop-color="#FAF9F5"/>
    </radialGradient>
  </defs>
  <rect width="320" height="100" rx="24" fill="url(#bgL)"/>
  <rect x="1" y="1" width="318" height="98" rx="23" fill="none" stroke="#E9E7DF" stroke-width="1.5"/>
  <path d="M 14 24 L 14 12 L 26 12" fill="none" stroke="#BEBBB4" stroke-width="1.6" stroke-linecap="round"/>
  <path d="M 294 12 L 306 12 L 306 24" fill="none" stroke="#BEBBB4" stroke-width="1.6" stroke-linecap="round"/>
  <path d="M 14 76 L 14 88 L 26 88" fill="none" stroke="#BEBBB4" stroke-width="1.6" stroke-linecap="round"/>
  <path d="M 294 88 L 306 88 L 306 76" fill="none" stroke="#BEBBB4" stroke-width="1.6" stroke-linecap="round"/>
  <line x1="20" y1="24" x2="20" y2="74" stroke="#AC7332" stroke-width="7" stroke-linecap="round"/>
  <line x1="23" y1="48" x2="55" y2="25" stroke="#AC7332" stroke-width="7" stroke-linecap="round"/>
  <line x1="23" y1="49" x2="55" y2="74" stroke="#AC7332" stroke-width="7" stroke-linecap="round"/>
  <circle cx="55" cy="25" r="2.5" fill="#C49052"/>
  <circle cx="55" cy="74" r="2.5" fill="#C49052"/>
  <circle cx="20" cy="24" r="1.5" fill="#7A4F1E"/>
  <text x="62" y="74" font-family="Inter, system-ui, -apple-system, Helvetica, Arial, sans-serif" font-size="70" font-weight="700" letter-spacing="-1" text-anchor="start" fill="#282A32">onfig</text>
</svg>
